<?xml version="1.0" encoding="UTF-8"?>
<svg version="1.1" xmlns="http://www.w3.org/2000/svg" width="512" height="512">
<path d="M0 0 C168.96 0 337.92 0 512 0 C512 168.96 512 337.92 512 512 C343.04 512 174.08 512 0 512 C0 343.04 0 174.08 0 0 Z " fill="#000055" transform="translate(0,0)"/>
<path d="M0 0 C4.24908336 1.59846469 6.82225739 4.8130392 9.75 8.125 C10.25660156 8.68832031 10.76320312 9.25164063 11.28515625 9.83203125 C12.52884532 11.21651531 13.76516305 12.60761488 15 14 C8.48247767 25.62808746 -1.93524046 32.74332811 -14.44841003 36.79223633 C-22.94302107 39.17116529 -31.06865 39.35789915 -39.80859375 39.22265625 C-41.30728595 39.21194203 -42.80599091 39.20289722 -44.30470276 39.19541931 C-48.22065668 39.17283281 -52.13624143 39.13388641 -56.05200195 39.0894165 C-62.31234632 39.0187786 -68.57266396 38.96349319 -74.83329964 38.92706108 C-76.99401346 38.91064685 -79.1542536 38.8810821 -81.31480408 38.85035706 C-98.28119561 38.68354269 -114.27519053 40.83801865 -127 53 C-135.68216153 62.25063639 -138.53702181 70.91233657 -138.33666992 83.38647461 C-138.14396722 89.08582095 -137.68054404 94.52374443 -136 100 C-135.75507813 100.80308594 -135.51015625 101.60617188 -135.2578125 102.43359375 C-129.30676551 119.31244826 -115.70559159 129.07751169 -100.37109375 136.86767578 C-92.15232186 140.79257941 -83.53076906 143.8339544 -75 147 C-39.29185519 160.29770342 -3.86229941 173.51736296 13.55078125 210.2734375 C20.53806116 227.29849121 22.47758667 250.50006826 16 268 C15.6596875 268.98742187 15.319375 269.97484375 14.96875 270.9921875 C7.54896349 290.69472871 -8.04895085 304.06243545 -26.66015625 312.75 C-40.9004716 318.84211352 -56.46402853 322.10339287 -71.953125 322.203125 C-72.68703964 322.21013931 -73.42095428 322.21715363 -74.17710876 322.22438049 C-76.53480229 322.24179325 -78.89224452 322.24823335 -81.25 322.25 C-82.05579498 322.25067474 -82.86158997 322.25134949 -83.69180298 322.25204468 C-96.00965753 322.23565376 -107.9546029 321.81265941 -120 319 C-121.03302246 318.76651855 -121.03302246 318.76651855 -122.08691406 318.52832031 C-138.73686433 314.60654077 -154.8927781 307.27641142 -169.625 298.6875 C-170.6449707 298.09352417 -170.6449707 298.09352417 -171.68554688 297.48754883 C-175.68457768 295.05949304 -178.82422802 292.43737772 -182 289 C-181.64695801 288.50072998 -181.29391602 288.00145996 -180.93017578 287.48706055 C-179.32803702 285.22083237 -177.72651213 282.95417105 -176.125 280.6875 C-175.56941406 279.90181641 -175.01382813 279.11613281 -174.44140625 278.30664062 C-173.90644531 277.54931641 -173.37148437 276.79199219 -172.8203125 276.01171875 C-172.32805176 275.31522217 -171.83579102 274.61872559 -171.32861328 273.90112305 C-170.19734704 272.28238541 -169.09545562 270.64318344 -168 269 C-163.95266778 270.42466094 -160.41507331 272.43923687 -156.72021484 274.57983398 C-124.35457943 293.18735535 -86.08278774 303.8887434 -49 294 C-48.16210938 293.7834375 -47.32421875 293.566875 -46.4609375 293.34375 C-32.60925144 289.23229548 -21.92426929 282.17757028 -14.47265625 269.76953125 C-7.51630829 256.68716865 -6.78086375 239.01440724 -10.90234375 224.8671875 C-18.45497061 205.13897356 -35.00763084 192.36995956 -53.64355469 183.78173828 C-65.54915061 178.4991095 -77.65761267 173.72265037 -89.79272461 168.99975586 C-119.75730159 157.33578572 -146.44225899 144.81572155 -161.5625 114.83984375 C-165.57552914 105.08154269 -166.53158303 94.94769638 -166.4375 84.5 C-166.42992676 83.31599609 -166.42235352 82.13199219 -166.41455078 80.91210938 C-166.25735683 72.60033566 -165.60971168 65.59051521 -162 58 C-161.57589844 57.05769531 -161.15179688 56.11539063 -160.71484375 55.14453125 C-157.22151438 48.08975745 -152.52684057 42.55552659 -147 37 C-146.41992188 36.38511719 -145.83984375 35.77023438 -145.2421875 35.13671875 C-135.966898 26.090192 -122.31189068 20.36799441 -110 17 C-109.27554688 16.78859375 -108.55109375 16.5771875 -107.8046875 16.359375 C-98.23556477 13.732557 -88.69846167 13.90742849 -78.8671875 14.04296875 C-77.50351841 14.05503151 -76.13983947 14.06602188 -74.77615356 14.07600403 C-69.03513071 14.11828632 -63.29433329 14.16573429 -57.55371094 14.24682617 C-54.02253007 14.29601593 -50.49165858 14.32452796 -46.96017838 14.34057045 C-44.99793897 14.35496797 -43.03589365 14.39086544 -41.07394409 14.42753601 C-25.44075372 14.47235865 -11.95714488 10.3628589 0 0 Z " fill="#EBDABA" transform="translate(221,40)"/>
<path d="M0 0 C0.85620117 2.08764648 0.85620117 2.08764648 1.54296875 4.87109375 C1.81302734 5.92361328 2.08308594 6.97613281 2.36132812 8.06054688 C2.63396484 9.17494141 2.90660156 10.28933594 3.1875 11.4375 C5.40407096 20.34326476 7.93019776 29.09632904 10.66479492 37.85498047 C14.48857706 50.19772019 18.08224453 62.59634068 21.58871841 75.03244591 C22.60401793 78.63118807 23.62401465 82.22857105 24.64523315 85.82563782 C27.54191718 96.03020072 30.43382604 106.2360995 33.31494141 116.44506836 C35.0935126 122.74706553 36.88067739 129.04659334 38.6724205 135.34485817 C39.34589902 137.71799184 40.01646013 140.09195569 40.68387222 142.4668026 C49.05914091 175.00138062 49.05914091 175.00138062 70.9296875 199.23828125 C76.01633829 202.04717476 81.29653759 203.11175585 87 204 C87.17015625 203.33355469 87.3403125 202.66710937 87.515625 201.98046875 C88.77488791 197.19125076 90.12391185 192.50897717 91.875 187.875 C93.55870042 183.39309 94.94453942 178.85855304 96.2578125 174.2578125 C99.14015777 164.31599858 102.4447159 154.52982958 105.77050781 144.72949219 C109.22592237 134.53009191 112.45195014 124.29679652 115.43165588 113.948349 C118.39928018 103.77499158 121.72415498 93.76288457 125.375 83.81640625 C126.84763571 79.62072978 128.07777065 75.35997959 129.3125 71.08984375 C132.17772635 61.20428194 135.46357972 51.47424228 138.77050781 41.72949219 C141.81039567 32.75660846 144.73717862 23.77692499 147.32434082 14.66149902 C148.8622068 9.28178229 150.74851859 4.11929014 153 -1 C160.78121942 1.02189166 168.39772708 3.38630407 176 6 C172.24204295 18.73529888 168.18183529 31.37532275 164.08203125 44.00390625 C163.82065872 44.80901138 163.55928619 45.61411652 163.28999329 46.44361877 C161.96687405 50.51750282 160.64192048 54.59078126 159.31469727 58.66333008 C156.82295313 66.3176758 154.37677758 73.98051844 152.02783203 81.68017578 C149.69496109 89.21518268 147.2227265 96.70651001 144.78173828 104.20703125 C141.77580694 113.44847477 138.83558599 122.70449282 136 132 C135.17451009 134.66916334 134.34004079 137.33538272 133.5 140 C133.2642627 140.74781738 133.02852539 141.49563477 132.78564453 142.26611328 C129.35840071 153.08561385 125.83108699 163.87335638 122.31445312 174.6640625 C119.82279613 182.3181657 117.37670242 189.9807648 115.02783203 197.68017578 C112.69496109 205.21518268 110.2227265 212.70651001 107.78173828 220.20703125 C104.77580945 229.44846706 101.83491722 238.70429519 99 248 C97.33912438 253.38137103 95.64288872 258.75104139 93.92431641 264.11425781 C93.26249858 266.18047195 92.60365817 268.2476407 91.94677734 270.31542969 C90.80986891 273.8809407 89.65648603 277.44079566 88.5 281 C88.14462158 282.12100098 87.78924316 283.24200195 87.4230957 284.39697266 C81.51650329 302.40399653 71.21379274 317.79402142 53.91796875 326.5625 C50.97493609 327.83189534 48.02966674 328.95571433 45 330 C44.15695312 330.29519531 43.31390625 330.59039062 42.4453125 330.89453125 C32.08162739 334.25527898 21.85982597 335.34659019 11 335 C9.33405548 327.68925318 8.48827713 320.47834967 8 313 C9.20914063 312.91363281 10.41828125 312.82726562 11.6640625 312.73828125 C26.09603698 311.56200283 39.10701166 309.39191088 50 299 C50.62390625 298.41605469 51.2478125 297.83210938 51.890625 297.23046875 C63.16814561 285.58520291 66.62831971 267.31056901 71.3125 252.3125 C72.40114833 248.85329531 73.49218062 245.39485464 74.58451843 241.93681335 C75.25940202 239.79752819 75.93170204 237.65742591 76.60115051 235.51643372 C76.90204086 234.55750717 77.20293121 233.59858063 77.51293945 232.6105957 C77.77685989 231.76600296 78.04078033 230.92141022 78.31269836 230.05122375 C79 228 79 228 80 226 C79.05640625 225.85304688 78.1128125 225.70609375 77.140625 225.5546875 C63.17326935 223.1146073 53.08694149 218.23233884 43 208 C42.45988281 207.47019531 41.91976562 206.94039062 41.36328125 206.39453125 C33.82043123 198.35571301 28.43036432 187.96787223 24.70703125 177.67675781 C24.41251068 176.86802845 24.11799011 176.05929909 23.81454468 175.22606277 C19.69246735 163.63181478 16.46081005 151.75982584 13.125 139.921875 C12.39018892 137.33591751 11.65475308 134.75014603 10.91845703 132.16461182 C9.18947086 126.088544 7.46755721 120.01049858 5.7486515 113.9315722 C2.68195492 103.08718724 -0.39786877 92.24652536 -3.47895241 81.40622067 C-4.72365479 77.02575971 -5.96384614 72.64403782 -7.20263672 68.26190186 C-10.5723147 56.36434082 -14.00959188 44.49457072 -17.65396118 32.67788315 C-19.49617255 26.70291254 -21.25011323 20.70803402 -22.9375 14.6875 C-23.14821136 13.93757908 -23.35892273 13.18765816 -23.57601929 12.41501236 C-25 7.24908593 -25 7.24908593 -25 5 C-22.27161565 4.18479365 -19.54235583 3.37275157 -16.8125 2.5625 C-15.65911133 2.21735352 -15.65911133 2.21735352 -14.48242188 1.86523438 C-3.85014205 -1.28338068 -3.85014205 -1.28338068 0 0 Z " fill="#EBDAB9" transform="translate(298,138)"/>
<path d="M0 0 C0.33 0 0.66 0 1 0 C1 13.53 1 27.06 1 41 C-12.53 41 -26.06 41 -40 41 C-36.76284016 39.38142008 -33.61375469 38.05715856 -30.25 36.75 C-24.78388069 34.47853851 -20.44415797 31.88380762 -16 28 C-15.40703125 27.52304687 -14.8140625 27.04609375 -14.203125 26.5546875 C-6.56114327 19.82568589 -2.52693015 9.66396702 0 0 Z " fill="#000000" transform="translate(511,471)"/>
<path d="M0 0 C1.61857992 3.23715984 2.94284144 6.38624531 4.25 9.75 C6.52146149 15.21611931 9.11619238 19.55584203 13 24 C13.71542969 24.88945312 13.71542969 24.88945312 14.4453125 25.796875 C21.17431411 33.43885673 31.33603298 37.47306985 41 40 C41 40.33 41 40.66 41 41 C27.47 41 13.94 41 0 41 C0 27.47 0 13.94 0 0 Z " fill="#000000" transform="translate(0,471)"/>
<path d="M0 0 C13.53 0 27.06 0 41 0 C41 13.53 41 27.06 41 41 C39.38142008 37.76284016 38.05715856 34.61375469 36.75 31.25 C34.47853851 25.78388069 31.88380762 21.44415797 28 17 C27.52304687 16.40703125 27.04609375 15.8140625 26.5546875 15.203125 C19.82568589 7.56114327 9.66396702 3.52693015 0 1 C0 0.67 0 0.34 0 0 Z " fill="#000000" transform="translate(471,0)"/>
<path d="M0 0 C13.53 0 27.06 0 41 0 C37.76284016 1.61857992 34.61375469 2.94284144 31.25 4.25 C25.78388069 6.52146149 21.44415797 9.11619238 17 13 C16.40703125 13.47695312 15.8140625 13.95390625 15.203125 14.4453125 C7.56114327 21.17431411 3.52693015 31.33603298 1 41 C0.67 41 0.34 41 0 41 C0 27.47 0 13.94 0 0 Z " fill="#000000" transform="translate(0,0)"/>
</svg>
